<mxfile host="app.diagrams.net" agent="Mozilla/5.0 (Windows NT 10.0; Win64; x64) AppleWebKit/537.36 (KHTML, like Gecko) Chrome/132.0.0.0 Safari/537.36" version="26.0.9" pages="2">
  <diagram name="Diagramma 3.11" id="CQaK8_FWGujz7TJ_8FJ8">
    <mxGraphModel dx="808" dy="941" grid="1" gridSize="10" guides="1" tooltips="1" connect="1" arrows="1" fold="1" page="1" pageScale="1" pageWidth="827" pageHeight="1169" math="0" shadow="0">
      <root>
        <mxCell id="0" />
        <mxCell id="1" parent="0" />
        <mxCell id="VkuLRoG7yVfgyovJFXW7-3" value="" style="edgeStyle=orthogonalEdgeStyle;rounded=0;orthogonalLoop=1;jettySize=auto;html=1;" edge="1" parent="1" source="uLeUHR-o4zQj0WyKFECJ-1" target="VkuLRoG7yVfgyovJFXW7-2">
          <mxGeometry relative="1" as="geometry" />
        </mxCell>
        <mxCell id="uLeUHR-o4zQj0WyKFECJ-1" value="&lt;font style=&quot;vertical-align: inherit;&quot;&gt;&lt;font style=&quot;vertical-align: inherit;&quot;&gt;INIZIO&lt;/font&gt;&lt;/font&gt;" style="ellipse;whiteSpace=wrap;html=1;" parent="1" vertex="1">
          <mxGeometry x="330" width="120" height="80" as="geometry" />
        </mxCell>
        <mxCell id="VkuLRoG7yVfgyovJFXW7-5" value="" style="edgeStyle=orthogonalEdgeStyle;rounded=0;orthogonalLoop=1;jettySize=auto;html=1;" edge="1" parent="1" source="VkuLRoG7yVfgyovJFXW7-2" target="VkuLRoG7yVfgyovJFXW7-4">
          <mxGeometry relative="1" as="geometry" />
        </mxCell>
        <mxCell id="VkuLRoG7yVfgyovJFXW7-2" value="&lt;font style=&quot;vertical-align: inherit;&quot;&gt;&lt;font style=&quot;vertical-align: inherit;&quot;&gt;read int: età&lt;/font&gt;&lt;/font&gt;" style="shape=parallelogram;perimeter=parallelogramPerimeter;whiteSpace=wrap;html=1;fixedSize=1;" vertex="1" parent="1">
          <mxGeometry x="330" y="120" width="120" height="60" as="geometry" />
        </mxCell>
        <mxCell id="VkuLRoG7yVfgyovJFXW7-7" value="" style="edgeStyle=orthogonalEdgeStyle;rounded=0;orthogonalLoop=1;jettySize=auto;html=1;" edge="1" parent="1" source="VkuLRoG7yVfgyovJFXW7-4" target="VkuLRoG7yVfgyovJFXW7-6">
          <mxGeometry relative="1" as="geometry" />
        </mxCell>
        <mxCell id="VkuLRoG7yVfgyovJFXW7-9" value="TRUE" style="edgeLabel;html=1;align=center;verticalAlign=middle;resizable=0;points=[];" vertex="1" connectable="0" parent="VkuLRoG7yVfgyovJFXW7-7">
          <mxGeometry x="-0.3383" y="3" relative="1" as="geometry">
            <mxPoint as="offset" />
          </mxGeometry>
        </mxCell>
        <mxCell id="VkuLRoG7yVfgyovJFXW7-11" value="" style="edgeStyle=orthogonalEdgeStyle;rounded=0;orthogonalLoop=1;jettySize=auto;html=1;" edge="1" parent="1" source="VkuLRoG7yVfgyovJFXW7-4">
          <mxGeometry relative="1" as="geometry">
            <mxPoint x="390" y="400" as="targetPoint" />
          </mxGeometry>
        </mxCell>
        <mxCell id="VkuLRoG7yVfgyovJFXW7-12" value="FALSE" style="edgeLabel;html=1;align=center;verticalAlign=middle;resizable=0;points=[];" vertex="1" connectable="0" parent="VkuLRoG7yVfgyovJFXW7-11">
          <mxGeometry x="-0.475" relative="1" as="geometry">
            <mxPoint as="offset" />
          </mxGeometry>
        </mxCell>
        <mxCell id="VkuLRoG7yVfgyovJFXW7-4" value="età &amp;gt; 10&lt;div&gt;and&lt;/div&gt;&lt;div&gt;età % 2 == 0&lt;/div&gt;" style="rhombus;whiteSpace=wrap;html=1;" vertex="1" parent="1">
          <mxGeometry x="330" y="230" width="120" height="90" as="geometry" />
        </mxCell>
        <mxCell id="VkuLRoG7yVfgyovJFXW7-16" value="" style="edgeStyle=orthogonalEdgeStyle;rounded=0;orthogonalLoop=1;jettySize=auto;html=1;" edge="1" parent="1" source="VkuLRoG7yVfgyovJFXW7-6" target="VkuLRoG7yVfgyovJFXW7-14">
          <mxGeometry relative="1" as="geometry">
            <Array as="points">
              <mxPoint x="590" y="330" />
              <mxPoint x="590" y="330" />
            </Array>
          </mxGeometry>
        </mxCell>
        <mxCell id="VkuLRoG7yVfgyovJFXW7-6" value="write &quot;Numero valido&quot;" style="shape=parallelogram;perimeter=parallelogramPerimeter;whiteSpace=wrap;html=1;fixedSize=1;" vertex="1" parent="1">
          <mxGeometry x="530" y="245" width="150" height="60" as="geometry" />
        </mxCell>
        <mxCell id="VkuLRoG7yVfgyovJFXW7-15" value="" style="edgeStyle=orthogonalEdgeStyle;rounded=0;orthogonalLoop=1;jettySize=auto;html=1;" edge="1" parent="1" source="VkuLRoG7yVfgyovJFXW7-13" target="VkuLRoG7yVfgyovJFXW7-14">
          <mxGeometry relative="1" as="geometry" />
        </mxCell>
        <mxCell id="VkuLRoG7yVfgyovJFXW7-13" value="weite &quot;Numero non valido.&quot;" style="shape=parallelogram;perimeter=parallelogramPerimeter;whiteSpace=wrap;html=1;fixedSize=1;" vertex="1" parent="1">
          <mxGeometry x="330" y="400" width="120" height="60" as="geometry" />
        </mxCell>
        <mxCell id="VkuLRoG7yVfgyovJFXW7-18" value="" style="edgeStyle=orthogonalEdgeStyle;rounded=0;orthogonalLoop=1;jettySize=auto;html=1;" edge="1" parent="1" source="VkuLRoG7yVfgyovJFXW7-14" target="VkuLRoG7yVfgyovJFXW7-17">
          <mxGeometry relative="1" as="geometry" />
        </mxCell>
        <mxCell id="VkuLRoG7yVfgyovJFXW7-14" value="" style="ellipse;whiteSpace=wrap;html=1;" vertex="1" parent="1">
          <mxGeometry x="580" y="420" width="20" height="20" as="geometry" />
        </mxCell>
        <mxCell id="VkuLRoG7yVfgyovJFXW7-17" value="END" style="ellipse;whiteSpace=wrap;html=1;" vertex="1" parent="1">
          <mxGeometry x="680" y="395" width="80" height="70" as="geometry" />
        </mxCell>
      </root>
    </mxGraphModel>
  </diagram>
  <diagram id="8gsgXAeq2Wo-oNKips9n" name="Diagramma 3.10">
    <mxGraphModel dx="606" dy="706" grid="1" gridSize="10" guides="1" tooltips="1" connect="1" arrows="1" fold="1" page="1" pageScale="1" pageWidth="827" pageHeight="1169" math="0" shadow="0">
      <root>
        <mxCell id="0" />
        <mxCell id="1" parent="0" />
        <mxCell id="ng-DXBVvRYvyXz103r0l-3" value="" style="edgeStyle=orthogonalEdgeStyle;rounded=0;orthogonalLoop=1;jettySize=auto;html=1;" edge="1" parent="1" source="ng-DXBVvRYvyXz103r0l-1" target="ng-DXBVvRYvyXz103r0l-2">
          <mxGeometry relative="1" as="geometry" />
        </mxCell>
        <mxCell id="ng-DXBVvRYvyXz103r0l-1" value="START" style="ellipse;whiteSpace=wrap;html=1;" vertex="1" parent="1">
          <mxGeometry x="250" y="1" width="120" height="80" as="geometry" />
        </mxCell>
        <mxCell id="ng-DXBVvRYvyXz103r0l-5" value="" style="edgeStyle=orthogonalEdgeStyle;rounded=0;orthogonalLoop=1;jettySize=auto;html=1;" edge="1" parent="1" source="ng-DXBVvRYvyXz103r0l-2" target="ng-DXBVvRYvyXz103r0l-4">
          <mxGeometry relative="1" as="geometry" />
        </mxCell>
        <mxCell id="ng-DXBVvRYvyXz103r0l-2" value="read età" style="shape=parallelogram;perimeter=parallelogramPerimeter;whiteSpace=wrap;html=1;fixedSize=1;container=1;" vertex="1" parent="1">
          <mxGeometry x="250" y="110" width="120" height="60" as="geometry" />
        </mxCell>
        <mxCell id="ng-DXBVvRYvyXz103r0l-7" value="" style="edgeStyle=orthogonalEdgeStyle;rounded=0;orthogonalLoop=1;jettySize=auto;html=1;" edge="1" parent="1" source="ng-DXBVvRYvyXz103r0l-4" target="ng-DXBVvRYvyXz103r0l-6">
          <mxGeometry relative="1" as="geometry" />
        </mxCell>
        <mxCell id="ng-DXBVvRYvyXz103r0l-8" value="TRUE" style="edgeLabel;html=1;align=center;verticalAlign=middle;resizable=0;points=[];" vertex="1" connectable="0" parent="ng-DXBVvRYvyXz103r0l-7">
          <mxGeometry x="-0.0011" y="-3" relative="1" as="geometry">
            <mxPoint as="offset" />
          </mxGeometry>
        </mxCell>
        <mxCell id="ng-DXBVvRYvyXz103r0l-10" value="" style="edgeStyle=orthogonalEdgeStyle;rounded=0;orthogonalLoop=1;jettySize=auto;html=1;" edge="1" parent="1" source="ng-DXBVvRYvyXz103r0l-4" target="ng-DXBVvRYvyXz103r0l-9">
          <mxGeometry relative="1" as="geometry" />
        </mxCell>
        <mxCell id="ng-DXBVvRYvyXz103r0l-11" value="FALSE" style="edgeLabel;html=1;align=center;verticalAlign=middle;resizable=0;points=[];" vertex="1" connectable="0" parent="ng-DXBVvRYvyXz103r0l-10">
          <mxGeometry x="-0.0306" y="-2" relative="1" as="geometry">
            <mxPoint as="offset" />
          </mxGeometry>
        </mxCell>
        <mxCell id="ng-DXBVvRYvyXz103r0l-4" value="18 &amp;lt; età &amp;lt; 65" style="rhombus;whiteSpace=wrap;html=1;" vertex="1" parent="1">
          <mxGeometry x="235" y="200" width="150" height="80" as="geometry" />
        </mxCell>
        <mxCell id="ng-DXBVvRYvyXz103r0l-6" value="write &quot; L&#39;utente può partecipare&amp;nbsp; all&#39;attività &quot;" style="shape=parallelogram;perimeter=parallelogramPerimeter;whiteSpace=wrap;html=1;fixedSize=1;" vertex="1" parent="1">
          <mxGeometry x="480" y="210" width="170" height="60" as="geometry" />
        </mxCell>
        <mxCell id="ng-DXBVvRYvyXz103r0l-13" value="" style="edgeStyle=orthogonalEdgeStyle;rounded=0;orthogonalLoop=1;jettySize=auto;html=1;" edge="1" parent="1" source="ng-DXBVvRYvyXz103r0l-9">
          <mxGeometry relative="1" as="geometry">
            <mxPoint x="465" y="400" as="targetPoint" />
          </mxGeometry>
        </mxCell>
        <mxCell id="ng-DXBVvRYvyXz103r0l-14" value="TRUE" style="edgeLabel;html=1;align=center;verticalAlign=middle;resizable=0;points=[];" vertex="1" connectable="0" parent="ng-DXBVvRYvyXz103r0l-13">
          <mxGeometry x="-0.1194" y="1" relative="1" as="geometry">
            <mxPoint as="offset" />
          </mxGeometry>
        </mxCell>
        <mxCell id="ng-DXBVvRYvyXz103r0l-18" value="" style="edgeStyle=orthogonalEdgeStyle;rounded=0;orthogonalLoop=1;jettySize=auto;html=1;" edge="1" parent="1" source="ng-DXBVvRYvyXz103r0l-9" target="ng-DXBVvRYvyXz103r0l-17">
          <mxGeometry relative="1" as="geometry" />
        </mxCell>
        <mxCell id="ng-DXBVvRYvyXz103r0l-19" value="FALSE" style="edgeLabel;html=1;align=center;verticalAlign=middle;resizable=0;points=[];" vertex="1" connectable="0" parent="ng-DXBVvRYvyXz103r0l-18">
          <mxGeometry x="-0.1167" y="1" relative="1" as="geometry">
            <mxPoint as="offset" />
          </mxGeometry>
        </mxCell>
        <mxCell id="ng-DXBVvRYvyXz103r0l-9" value="età &amp;lt; 18" style="rhombus;whiteSpace=wrap;html=1;" vertex="1" parent="1">
          <mxGeometry x="235" y="360" width="150" height="80" as="geometry" />
        </mxCell>
        <mxCell id="ng-DXBVvRYvyXz103r0l-16" value="write &quot;L&#39;utente non può partecipare perchè non ha raggiunto l&#39;età minima consentita&quot;" style="shape=parallelogram;perimeter=parallelogramPerimeter;whiteSpace=wrap;html=1;fixedSize=1;align=center;" vertex="1" parent="1">
          <mxGeometry x="460" y="350" width="220" height="90" as="geometry" />
        </mxCell>
        <mxCell id="ng-DXBVvRYvyXz103r0l-21" value="" style="edgeStyle=orthogonalEdgeStyle;rounded=0;orthogonalLoop=1;jettySize=auto;html=1;" edge="1" parent="1" source="ng-DXBVvRYvyXz103r0l-17" target="ng-DXBVvRYvyXz103r0l-20">
          <mxGeometry relative="1" as="geometry" />
        </mxCell>
        <mxCell id="ng-DXBVvRYvyXz103r0l-22" value="FALSE" style="edgeLabel;html=1;align=center;verticalAlign=middle;resizable=0;points=[];" vertex="1" connectable="0" parent="ng-DXBVvRYvyXz103r0l-21">
          <mxGeometry x="-0.1196" y="4" relative="1" as="geometry">
            <mxPoint as="offset" />
          </mxGeometry>
        </mxCell>
        <mxCell id="ng-DXBVvRYvyXz103r0l-24" value="" style="edgeStyle=orthogonalEdgeStyle;rounded=0;orthogonalLoop=1;jettySize=auto;html=1;" edge="1" parent="1" source="ng-DXBVvRYvyXz103r0l-17" target="ng-DXBVvRYvyXz103r0l-23">
          <mxGeometry relative="1" as="geometry" />
        </mxCell>
        <mxCell id="ng-DXBVvRYvyXz103r0l-25" value="TRUE" style="edgeLabel;html=1;align=center;verticalAlign=middle;resizable=0;points=[];" vertex="1" connectable="0" parent="ng-DXBVvRYvyXz103r0l-24">
          <mxGeometry x="-0.1417" y="1" relative="1" as="geometry">
            <mxPoint as="offset" />
          </mxGeometry>
        </mxCell>
        <mxCell id="ng-DXBVvRYvyXz103r0l-17" value="età &amp;gt; 65" style="rhombus;whiteSpace=wrap;html=1;" vertex="1" parent="1">
          <mxGeometry x="235" y="520" width="150" height="80" as="geometry" />
        </mxCell>
        <mxCell id="ng-DXBVvRYvyXz103r0l-20" value="write &quot;L&#39;utente non può partecipare perchè ha superatol&#39;età massima consentita&quot;" style="shape=parallelogram;perimeter=parallelogramPerimeter;whiteSpace=wrap;html=1;fixedSize=1;" vertex="1" parent="1">
          <mxGeometry x="480" y="520" width="220" height="80" as="geometry" />
        </mxCell>
        <mxCell id="ng-DXBVvRYvyXz103r0l-23" value="END" style="ellipse;whiteSpace=wrap;html=1;" vertex="1" parent="1">
          <mxGeometry x="270" y="680" width="80" height="80" as="geometry" />
        </mxCell>
      </root>
    </mxGraphModel>
  </diagram>
</mxfile>
